<?xml version="1.0" encoding="utf-8"?>
<!-- Generator: Adobe Illustrator 17.0.2, SVG Export Plug-In . SVG Version: 6.00 Build 0)  -->
<!DOCTYPE svg PUBLIC "-//W3C//DTD SVG 1.1//EN" "http://www.w3.org/Graphics/SVG/1.1/DTD/svg11.dtd">
<svg version="1.1" id="Layer_1" xmlns="http://www.w3.org/2000/svg" xmlns:xlink="http://www.w3.org/1999/xlink" x="0px" y="0px"
	 width="450.685px" height="72.228px" viewBox="0 0 450.685 72.228" enable-background="new 0 0 450.685 72.228"
	 xml:space="preserve">
<g>
	<g>
		<path fill="#FFFFFF" d="M19.095,33.391c0,5.092-4.108,9.547-9.374,9.547C5.208,42.938,0,40.739,0,33.217V10.536
			c0-5.381,3.877-9.489,9.606-9.489c5.438,0,9.489,4.108,9.489,9.836v2.314h-5.902V11.23c0-2.314-1.389-4.282-3.645-4.282
			c-2.95,0-3.645,2.025-3.645,4.803v21.062c0,2.372,0.926,4.224,3.587,4.224c1.62,0,3.703-0.926,3.703-4.166v-2.025h5.902V33.391z"
			/>
		<path fill="#FFFFFF" d="M23.203,1.393h5.901v17.648h7.291V1.393h5.901v41.197h-5.901V24.249h-7.291v18.342h-5.901V1.393z"/>
		<path fill="#FFFFFF" d="M54.39,1.393h4.919l9.199,41.197h-5.901l-1.736-8.853h-8.042l-1.736,8.853H45.19L54.39,1.393z
			 M56.878,13.255h-0.115l-2.894,14.929h5.902L56.878,13.255z"/>
		<path fill="#FFFFFF" d="M71.575,1.393h5.901v41.197h-5.901V1.393z"/>
		<path fill="#FFFFFF" d="M82.974,1.393h5.671l8.91,24.822h0.116V1.393h5.901v41.197h-5.555l-9.026-24.765h-0.115v24.765h-5.902
			V1.393z"/>
		<path fill="#FFFFFF" d="M108.896,1.393h17.59v5.555h-11.688v12.093h10.184v5.555h-10.184v12.094h11.688v5.901h-17.59V1.393z"/>
		<path fill="#FFFFFF" d="M130.304,1.393h8.737c6.654,0,10.357,3.992,10.357,10.646v19.268c0,7.638-3.934,11.283-10.878,11.283
			h-8.217V1.393z M136.206,37.036h2.719c3.299,0,4.571-1.62,4.571-5.149V12.04c0-3.24-1.1-5.092-4.571-5.092h-2.719V37.036z"/>
		<path fill="#FFFFFF" d="M165.715,1.393h17.59v5.555h-11.689v12.498H181.8v5.555h-10.184v17.59h-5.901V1.393z"/>
		<path fill="#FFFFFF" d="M187.123,1.393h9.489c7.001,0,10.415,4.108,10.415,12.093c0,4.745-1.331,8.217-5.092,10.3l6.365,18.805
			h-6.249l-5.497-17.59h-3.529v17.59h-5.902V1.393z M193.025,19.793h3.356c4.108,0,4.745-2.314,4.745-6.422
			c0-4.166-0.694-6.423-5.034-6.423h-3.066V19.793z"/>
		<path fill="#FFFFFF" d="M211.772,1.393h17.59v5.555h-11.688v12.093h10.184v5.555h-10.184v12.094h11.688v5.901h-17.59V1.393z"/>
		<path fill="#FFFFFF" d="M233.181,1.393h17.59v5.555h-11.688v12.093h10.184v5.555h-10.184v12.094h11.688v5.901h-17.59V1.393z"/>
		<path fill="#FFFFFF" d="M254.59,1.393h8.736c6.654,0,10.357,3.992,10.357,10.646v19.268c0,7.638-3.935,11.283-10.878,11.283
			h-8.216V1.393z M260.491,37.036h2.72c3.298,0,4.571-1.62,4.571-5.149V12.04c0-3.24-1.1-5.092-4.571-5.092h-2.72V37.036z"/>
		<path fill="#FFFFFF" d="M278.892,11.114c0-6.712,5.092-10.068,9.894-10.068c4.803,0,9.895,3.356,9.895,10.068V32.87
			c0,6.712-5.092,10.067-9.895,10.067c-4.802,0-9.894-3.355-9.894-10.067V11.114z M284.793,32.87c0,2.835,1.852,4.166,3.992,4.166
			c2.142,0,3.993-1.331,3.993-4.166V11.114c0-2.835-1.852-4.166-3.993-4.166c-2.141,0-3.992,1.331-3.992,4.166V32.87z"/>
		<path fill="#FFFFFF" d="M303.888,1.393h5.67l7.58,21.813h0.115l7.522-21.813h5.728v41.197h-5.902V17.537h-0.115l-5.845,17.705
			h-2.95l-5.786-17.705h-0.116v25.054h-5.901V1.393z"/>
	</g>
	<g>
		<path fill="#FFFFFF" d="M2.513,51.457h1.517v4.375h2.404v1.31H4.029v10.473H2.513V57.142H0.444v-1.31h2.068V51.457z"/>
		<path fill="#FFFFFF" d="M8.707,51.283h1.517v6.66c0.613-0.809,1.288-1.413,2.024-1.813c0.737-0.401,1.534-0.602,2.394-0.602
			c0.881,0,1.662,0.224,2.345,0.672c0.683,0.447,1.186,1.049,1.511,1.803c0.325,0.755,0.487,1.937,0.487,3.547v6.064h-1.516v-5.62
			c0-1.357-0.055-2.264-0.163-2.719c-0.188-0.779-0.528-1.366-1.024-1.76c-0.494-0.394-1.142-0.59-1.943-0.59
			c-0.917,0-1.738,0.303-2.464,0.909c-0.726,0.606-1.204,1.357-1.435,2.253c-0.144,0.577-0.217,1.646-0.217,3.205v4.321H8.707
			V51.283z"/>
		<path fill="#FFFFFF" d="M32.153,63.705l1.278,0.671c-0.419,0.823-0.903,1.487-1.453,1.993c-0.549,0.505-1.167,0.89-1.853,1.153
			c-0.687,0.264-1.463,0.396-2.33,0.396c-1.923,0-3.426-0.63-4.51-1.891c-1.084-1.26-1.626-2.684-1.626-4.271
			c0-1.495,0.459-2.827,1.377-3.996c1.163-1.487,2.721-2.231,4.672-2.231c2.009,0,3.613,0.762,4.812,2.285
			c0.852,1.076,1.286,2.419,1.301,4.028H23.219c0.029,1.369,0.467,2.491,1.312,3.366c0.846,0.875,1.89,1.312,3.134,1.312
			c0.6,0,1.183-0.104,1.751-0.312c0.567-0.209,1.05-0.486,1.447-0.831C31.261,65.032,31.69,64.475,32.153,63.705z M32.153,60.531
			c-0.202-0.808-0.497-1.454-0.884-1.938c-0.387-0.483-0.898-0.873-1.534-1.169c-0.636-0.296-1.305-0.444-2.006-0.444
			c-1.156,0-2.15,0.372-2.982,1.115c-0.607,0.542-1.066,1.354-1.377,2.436H32.153z"/>
		<path fill="#FFFFFF" d="M42.788,51.283h1.516v6.66c0.614-0.809,1.289-1.413,2.025-1.813c0.736-0.401,1.534-0.602,2.394-0.602
			c0.881,0,1.662,0.224,2.345,0.672c0.682,0.447,1.186,1.049,1.511,1.803c0.324,0.755,0.487,1.937,0.487,3.547v6.064h-1.517v-5.62
			c0-1.357-0.054-2.264-0.162-2.719c-0.188-0.779-0.529-1.366-1.023-1.76c-0.495-0.394-1.143-0.59-1.944-0.59
			c-0.917,0-1.738,0.303-2.464,0.909c-0.726,0.606-1.203,1.357-1.435,2.253c-0.145,0.577-0.217,1.646-0.217,3.205v4.321h-1.516
			V51.283z"/>
		<path fill="#FFFFFF" d="M56.119,55.832h1.517v5.501c0,1.343,0.072,2.268,0.217,2.772c0.217,0.722,0.631,1.292,1.241,1.711
			c0.611,0.419,1.34,0.628,2.185,0.628c0.846,0,1.564-0.203,2.153-0.611c0.589-0.408,0.996-0.944,1.22-1.608
			c0.152-0.455,0.228-1.419,0.228-2.892v-5.501h1.549v5.782c0,1.625-0.189,2.849-0.568,3.672c-0.379,0.823-0.949,1.467-1.711,1.933
			c-0.762,0.466-1.717,0.699-2.864,0.699c-1.148,0-2.106-0.233-2.875-0.699c-0.77-0.466-1.344-1.115-1.723-1.949
			c-0.379-0.834-0.568-2.088-0.568-3.763V55.832z"/>
		<path fill="#FFFFFF" d="M69.786,55.832h1.516v2.035c0.527-0.75,1.069-1.299,1.626-1.646c0.767-0.462,1.572-0.693,2.418-0.693
			c0.571,0,1.113,0.112,1.627,0.336c0.513,0.224,0.932,0.522,1.257,0.894c0.325,0.372,0.607,0.904,0.846,1.598
			c0.505-0.925,1.135-1.627,1.891-2.106c0.757-0.48,1.57-0.721,2.442-0.721c0.813,0,1.532,0.206,2.155,0.617
			c0.623,0.412,1.086,0.985,1.388,1.722c0.303,0.737,0.454,1.842,0.454,3.314v6.433h-1.549v-6.433c0-1.264-0.09-2.132-0.269-2.604
			c-0.18-0.473-0.487-0.854-0.923-1.143c-0.436-0.289-0.955-0.433-1.56-0.433c-0.734,0-1.405,0.217-2.014,0.65
			c-0.607,0.433-1.052,1.011-1.333,1.733c-0.28,0.722-0.42,1.928-0.42,3.617v4.613h-1.517v-6.032c0-1.422-0.089-2.388-0.266-2.896
			c-0.177-0.509-0.485-0.917-0.926-1.224c-0.44-0.308-0.964-0.461-1.57-0.461c-0.7,0-1.355,0.212-1.966,0.634
			c-0.609,0.423-1.061,0.991-1.354,1.706c-0.292,0.715-0.438,1.809-0.438,3.281v4.992h-1.516V55.832z"/>
		<path fill="#FFFFFF" d="M102.34,55.832v11.782h-1.495v-2.025c-0.635,0.772-1.348,1.354-2.139,1.744
			c-0.79,0.39-1.655,0.585-2.594,0.585c-1.668,0-3.092-0.605-4.272-1.814c-1.18-1.209-1.771-2.681-1.771-4.413
			c0-1.696,0.596-3.147,1.787-4.354c1.192-1.205,2.624-1.809,4.3-1.809c0.967,0,1.843,0.206,2.626,0.617
			c0.783,0.412,1.471,1.029,2.062,1.852v-2.166H102.34z M96.28,56.99c-0.844,0-1.622,0.208-2.336,0.622
			c-0.715,0.415-1.282,0.997-1.704,1.747c-0.422,0.75-0.633,1.543-0.633,2.38c0,0.829,0.213,1.623,0.638,2.38
			c0.426,0.757,0.997,1.347,1.715,1.769c0.718,0.422,1.487,0.633,2.31,0.633c0.829,0,1.615-0.209,2.358-0.628
			c0.742-0.418,1.313-0.983,1.714-1.697c0.4-0.715,0.601-1.519,0.601-2.413c0-1.362-0.449-2.502-1.347-3.418
			C98.698,57.448,97.593,56.99,96.28,56.99z"/>
		<path fill="#FFFFFF" d="M105.751,55.832h1.516v2.111c0.606-0.809,1.278-1.413,2.015-1.813c0.736-0.401,1.538-0.602,2.404-0.602
			c0.881,0,1.662,0.224,2.345,0.672c0.682,0.447,1.186,1.05,1.511,1.809c0.324,0.758,0.487,1.938,0.487,3.541v6.064h-1.517v-5.62
			c0-1.357-0.057-2.264-0.169-2.719c-0.176-0.779-0.513-1.366-1.011-1.76c-0.498-0.394-1.147-0.59-1.949-0.59
			c-0.917,0-1.738,0.303-2.464,0.909c-0.727,0.606-1.204,1.357-1.436,2.253c-0.144,0.585-0.217,1.653-0.217,3.205v4.321h-1.516
			V55.832z"/>
		<path fill="#FFFFFF" d="M136.854,58.279l-1.202,0.747c-1.039-1.379-2.456-2.068-4.251-2.068c-1.436,0-2.627,0.462-3.575,1.385
			c-0.948,0.923-1.423,2.044-1.423,3.364c0,0.858,0.219,1.666,0.654,2.423c0.437,0.757,1.035,1.345,1.796,1.763
			c0.761,0.419,1.613,0.628,2.559,0.628c1.73,0,3.144-0.689,4.24-2.068l1.202,0.79c-0.564,0.849-1.32,1.507-2.27,1.974
			c-0.949,0.468-2.03,0.702-3.243,0.702c-1.862,0-3.407-0.593-4.635-1.776c-1.228-1.185-1.841-2.624-1.841-4.321
			c0-1.141,0.287-2.2,0.86-3.179c0.574-0.978,1.363-1.741,2.366-2.29c1.004-0.549,2.126-0.823,3.368-0.823
			c0.78,0,1.532,0.119,2.258,0.357c0.726,0.238,1.341,0.549,1.847,0.932C136.069,57.2,136.499,57.688,136.854,58.279z"/>
		<path fill="#FFFFFF" d="M145.344,55.528c1.815,0,3.319,0.657,4.513,1.971c1.085,1.199,1.628,2.617,1.628,4.257
			c0,1.645-0.574,3.084-1.72,4.315c-1.146,1.23-2.62,1.847-4.421,1.847c-1.809,0-3.285-0.616-4.432-1.847
			c-1.146-1.231-1.72-2.67-1.72-4.315c0-1.632,0.542-3.047,1.627-4.245C142.013,56.189,143.52,55.528,145.344,55.528z
			 M145.338,57.012c-1.261,0-2.344,0.466-3.249,1.397c-0.906,0.932-1.358,2.058-1.358,3.379c0,0.852,0.206,1.646,0.619,2.383
			c0.413,0.736,0.971,1.305,1.674,1.705c0.702,0.4,1.475,0.602,2.315,0.602c0.841,0,1.612-0.201,2.315-0.602
			c0.702-0.4,1.26-0.969,1.673-1.705c0.413-0.737,0.62-1.531,0.62-2.383c0-1.321-0.455-2.447-1.364-3.379
			C147.673,57.477,146.592,57.012,145.338,57.012z"/>
		<path fill="#FFFFFF" d="M154.278,55.832h1.516v2.035c0.527-0.75,1.069-1.299,1.626-1.646c0.767-0.462,1.572-0.693,2.418-0.693
			c0.571,0,1.113,0.112,1.627,0.336c0.513,0.224,0.932,0.522,1.257,0.894c0.325,0.372,0.607,0.904,0.846,1.598
			c0.505-0.925,1.135-1.627,1.891-2.106c0.757-0.48,1.57-0.721,2.442-0.721c0.814,0,1.532,0.206,2.155,0.617
			c0.623,0.412,1.086,0.985,1.388,1.722c0.303,0.737,0.454,1.842,0.454,3.314v6.433h-1.549v-6.433c0-1.264-0.09-2.132-0.27-2.604
			c-0.18-0.473-0.487-0.854-0.923-1.143c-0.436-0.289-0.955-0.433-1.56-0.433c-0.734,0-1.405,0.217-2.014,0.65
			c-0.607,0.433-1.052,1.011-1.333,1.733c-0.28,0.722-0.42,1.928-0.42,3.617v4.613h-1.517v-6.032c0-1.422-0.089-2.388-0.266-2.896
			c-0.177-0.509-0.485-0.917-0.926-1.224c-0.441-0.308-0.964-0.461-1.57-0.461c-0.7,0-1.356,0.212-1.966,0.634
			c-0.609,0.423-1.061,0.991-1.354,1.706c-0.292,0.715-0.438,1.809-0.438,3.281v4.992h-1.516V55.832z"/>
		<path fill="#FFFFFF" d="M175.082,55.832h1.516v2.035c0.527-0.75,1.069-1.299,1.626-1.646c0.767-0.462,1.572-0.693,2.418-0.693
			c0.571,0,1.113,0.112,1.627,0.336c0.513,0.224,0.932,0.522,1.257,0.894c0.325,0.372,0.607,0.904,0.846,1.598
			c0.505-0.925,1.135-1.627,1.891-2.106c0.757-0.48,1.57-0.721,2.442-0.721c0.813,0,1.532,0.206,2.155,0.617
			c0.623,0.412,1.086,0.985,1.388,1.722c0.303,0.737,0.454,1.842,0.454,3.314v6.433h-1.549v-6.433c0-1.264-0.09-2.132-0.27-2.604
			c-0.18-0.473-0.487-0.854-0.923-1.143c-0.436-0.289-0.955-0.433-1.56-0.433c-0.734,0-1.405,0.217-2.014,0.65
			c-0.607,0.433-1.052,1.011-1.333,1.733c-0.28,0.722-0.42,1.928-0.42,3.617v4.613h-1.517v-6.032c0-1.422-0.089-2.388-0.266-2.896
			c-0.177-0.509-0.485-0.917-0.926-1.224c-0.44-0.308-0.964-0.461-1.57-0.461c-0.7,0-1.355,0.212-1.966,0.634
			c-0.609,0.423-1.061,0.991-1.354,1.706c-0.292,0.715-0.438,1.809-0.438,3.281v4.992h-1.516V55.832z"/>
		<path fill="#FFFFFF" d="M201.474,55.528c1.815,0,3.319,0.657,4.513,1.971c1.085,1.199,1.628,2.617,1.628,4.257
			c0,1.645-0.574,3.084-1.72,4.315c-1.146,1.23-2.62,1.847-4.421,1.847c-1.809,0-3.285-0.616-4.432-1.847
			c-1.146-1.231-1.72-2.67-1.72-4.315c0-1.632,0.542-3.047,1.627-4.245C198.143,56.189,199.65,55.528,201.474,55.528z
			 M201.468,57.012c-1.261,0-2.344,0.466-3.249,1.397c-0.906,0.932-1.358,2.058-1.358,3.379c0,0.852,0.206,1.646,0.619,2.383
			c0.413,0.736,0.971,1.305,1.674,1.705c0.702,0.4,1.475,0.602,2.314,0.602c0.841,0,1.612-0.201,2.315-0.602
			c0.702-0.4,1.26-0.969,1.673-1.705c0.413-0.737,0.62-1.531,0.62-2.383c0-1.321-0.455-2.447-1.364-3.379
			C203.803,57.477,202.722,57.012,201.468,57.012z"/>
		<path fill="#FFFFFF" d="M222.18,51.283v16.331h-1.494v-2.025c-0.636,0.772-1.349,1.354-2.14,1.744
			c-0.79,0.39-1.655,0.585-2.594,0.585c-1.667,0-3.092-0.605-4.271-1.814c-1.181-1.209-1.77-2.681-1.77-4.413
			c0-1.696,0.595-3.147,1.786-4.354c1.191-1.205,2.625-1.809,4.3-1.809c0.967,0,1.843,0.206,2.626,0.617
			c0.783,0.412,1.471,1.029,2.063,1.852v-6.715H222.18z M216.12,56.99c-0.844,0-1.622,0.208-2.336,0.622
			c-0.714,0.415-1.282,0.997-1.704,1.747s-0.633,1.543-0.633,2.38c0,0.829,0.213,1.623,0.639,2.38
			c0.425,0.757,0.997,1.347,1.714,1.769c0.718,0.422,1.487,0.633,2.31,0.633c0.829,0,1.615-0.209,2.358-0.628
			c0.742-0.418,1.314-0.983,1.715-1.697c0.399-0.715,0.6-1.519,0.6-2.413c0-1.362-0.448-2.502-1.347-3.418
			C218.538,57.448,217.433,56.99,216.12,56.99z"/>
		<path fill="#FFFFFF" d="M226.138,50.98c0.345,0,0.64,0.122,0.884,0.368c0.245,0.245,0.367,0.541,0.367,0.888
			c0,0.34-0.122,0.632-0.367,0.877c-0.244,0.246-0.539,0.368-0.884,0.368c-0.338,0-0.629-0.122-0.873-0.368
			c-0.245-0.245-0.367-0.537-0.367-0.877c0-0.347,0.122-0.643,0.367-0.888C225.509,51.102,225.8,50.98,226.138,50.98z
			 M225.385,55.832h1.517v11.782h-1.517V55.832z"/>
		<path fill="#FFFFFF" d="M231.374,51.457h1.516v4.375h2.404v1.31h-2.404v10.473h-1.516V57.142h-2.068v-1.31h2.068V51.457z"/>
		<path fill="#FFFFFF" d="M236.301,55.832h1.602l4.05,9.073l3.932-9.073h1.614l-7.028,16.093h-1.602l2.269-5.203L236.301,55.832z"/>
		<path fill="#FFFFFF" d="M255.621,55.832h1.516v2.166c0.599-0.823,1.288-1.44,2.066-1.852c0.779-0.411,1.648-0.617,2.607-0.617
			c1.674,0,3.105,0.604,4.295,1.809c1.19,1.206,1.785,2.657,1.785,4.354c0,1.732-0.59,3.204-1.768,4.413
			c-1.18,1.209-2.602,1.814-4.268,1.814c-0.939,0-1.8-0.195-2.586-0.585c-0.786-0.391-1.497-0.972-2.132-1.744v6.336h-1.516V55.832z
			 M261.685,56.99c-1.311,0-2.415,0.458-3.311,1.374c-0.896,0.916-1.345,2.056-1.345,3.418c0,0.894,0.199,1.698,0.6,2.413
			c0.399,0.714,0.972,1.279,1.718,1.697c0.745,0.419,1.532,0.628,2.36,0.628c0.814,0,1.579-0.211,2.296-0.633
			c0.717-0.422,1.288-1.012,1.713-1.769c0.425-0.757,0.638-1.551,0.638-2.38c0-0.837-0.211-1.63-0.633-2.38
			c-0.421-0.75-0.988-1.332-1.701-1.747C263.307,57.198,262.528,56.99,261.685,56.99z"/>
		<path fill="#FFFFFF" d="M270.154,55.832h1.549v1.722c0.462-0.679,0.949-1.186,1.462-1.521c0.513-0.336,1.047-0.504,1.603-0.504
			c0.419,0,0.866,0.134,1.343,0.4l-0.79,1.278c-0.318-0.137-0.585-0.206-0.802-0.206c-0.506,0-0.993,0.208-1.462,0.623
			c-0.47,0.415-0.827,1.06-1.072,1.933c-0.188,0.672-0.281,2.029-0.281,4.072v3.985h-1.549V55.832z"/>
		<path fill="#FFFFFF" d="M282.977,55.528c1.815,0,3.319,0.657,4.513,1.971c1.085,1.199,1.628,2.617,1.628,4.257
			c0,1.645-0.574,3.084-1.72,4.315c-1.146,1.23-2.62,1.847-4.421,1.847c-1.809,0-3.285-0.616-4.432-1.847
			c-1.147-1.231-1.72-2.67-1.72-4.315c0-1.632,0.542-3.047,1.627-4.245C279.646,56.189,281.153,55.528,282.977,55.528z
			 M282.971,57.012c-1.261,0-2.344,0.466-3.249,1.397c-0.906,0.932-1.358,2.058-1.358,3.379c0,0.852,0.206,1.646,0.619,2.383
			c0.413,0.736,0.971,1.305,1.674,1.705c0.702,0.4,1.475,0.602,2.314,0.602c0.841,0,1.612-0.201,2.315-0.602
			c0.702-0.4,1.26-0.969,1.673-1.705c0.413-0.737,0.62-1.531,0.62-2.383c0-1.321-0.455-2.447-1.364-3.379
			C285.306,57.477,284.225,57.012,282.971,57.012z"/>
		<path fill="#FFFFFF" d="M291.737,55.832h1.538v13.559c0,0.988-0.179,1.709-0.536,2.16c-0.357,0.451-0.847,0.677-1.468,0.677
			c-0.513,0-1.09-0.123-1.732-0.368v-1.364c0.404,0.209,0.768,0.313,1.094,0.313c0.411,0,0.719-0.169,0.921-0.509
			c0.122-0.217,0.184-0.668,0.184-1.354V55.832z M292.484,50.98c0.347,0,0.641,0.122,0.883,0.368
			c0.242,0.245,0.363,0.541,0.363,0.888c0,0.34-0.121,0.632-0.363,0.877c-0.242,0.246-0.536,0.368-0.883,0.368
			c-0.347,0-0.641-0.122-0.882-0.368c-0.242-0.245-0.363-0.537-0.363-0.877c0-0.347,0.121-0.643,0.363-0.888
			C291.844,51.102,292.138,50.98,292.484,50.98z"/>
		<path fill="#FFFFFF" d="M306.347,63.705l1.277,0.671c-0.419,0.823-0.903,1.487-1.452,1.993c-0.55,0.505-1.167,0.89-1.853,1.153
			c-0.687,0.264-1.464,0.396-2.331,0.396c-1.922,0-3.425-0.63-4.509-1.891c-1.084-1.26-1.626-2.684-1.626-4.271
			c0-1.495,0.459-2.827,1.377-3.996c1.163-1.487,2.72-2.231,4.671-2.231c2.01,0,3.613,0.762,4.813,2.285
			c0.853,1.076,1.287,2.419,1.301,4.028h-10.602c0.028,1.369,0.466,2.491,1.312,3.366c0.846,0.875,1.891,1.312,3.134,1.312
			c0.6,0,1.184-0.104,1.751-0.312c0.567-0.209,1.05-0.486,1.447-0.831C305.453,65.032,305.884,64.475,306.347,63.705z
			 M306.347,60.531c-0.203-0.808-0.497-1.454-0.884-1.938c-0.387-0.483-0.898-0.873-1.534-1.169
			c-0.637-0.296-1.306-0.444-2.006-0.444c-1.157,0-2.151,0.372-2.983,1.115c-0.607,0.542-1.066,1.354-1.377,2.436H306.347z"/>
		<path fill="#FFFFFF" d="M322.277,58.279l-1.202,0.747c-1.039-1.379-2.456-2.068-4.251-2.068c-1.436,0-2.627,0.462-3.575,1.385
			c-0.948,0.923-1.423,2.044-1.423,3.364c0,0.858,0.219,1.666,0.654,2.423c0.436,0.757,1.035,1.345,1.796,1.763
			c0.761,0.419,1.613,0.628,2.559,0.628c1.73,0,3.143-0.689,4.24-2.068l1.202,0.79c-0.563,0.849-1.32,1.507-2.27,1.974
			c-0.949,0.468-2.03,0.702-3.243,0.702c-1.862,0-3.407-0.593-4.635-1.776c-1.228-1.185-1.841-2.624-1.841-4.321
			c0-1.141,0.287-2.2,0.86-3.179c0.574-0.978,1.363-1.741,2.366-2.29c1.004-0.549,2.126-0.823,3.368-0.823
			c0.78,0,1.532,0.119,2.258,0.357c0.726,0.238,1.341,0.549,1.847,0.932C321.493,57.2,321.923,57.688,322.277,58.279z"/>
		<path fill="#FFFFFF" d="M326.512,51.457h1.516v4.375h2.404v1.31h-2.404v10.473h-1.516V57.142h-2.068v-1.31h2.068V51.457z"/>
	</g>
	<g>
		<rect x="338.757" y="41.826" fill="#FFFFFF" width="111.928" height="5.262"/>
		<rect x="338.757" y="52.282" fill="#FFFFFF" width="111.928" height="5.261"/>
		<rect x="338.757" y="62.738" fill="#FFFFFF" width="111.928" height="5.262"/>
		<path fill="#FFFFFF" d="M342.836,33.347c-0.181-0.498-0.225-1.045-0.343-1.622c1.332,0.029,2.542,0.048,3.751,0.091
			c0.11,0.004,0.259,0.134,0.317,0.243c0.296,0.55,0.761,0.829,1.364,0.832c2.916,0.011,5.834,0.009,8.75,0.001
			c0.753-0.001,1.174-0.455,1.407-1.114c1.339-0.019,2.629-0.038,3.94-0.057c0.159,0.988-0.189,1.806-0.69,2.538
			c-0.896,1.309-2.086,2.118-3.567,2.372h11.033c-1.812-0.355-3.587-1.729-4.092-3.6c-0.107-0.402-0.134-0.827-0.209-1.304
			c1.313,0.027,2.538,0.048,3.761,0.089c0.096,0.004,0.214,0.137,0.272,0.237c0.328,0.573,0.821,0.841,1.473,0.841
			c2.851,0,5.702-0.002,8.554,0.001c0.666,0.002,1.132-0.28,1.426-0.886c0.061-0.125,0.259-0.263,0.393-0.263
			c1.177,0.004,2.352,0.037,3.566,0.062c0.103,1.042-0.226,1.941-0.836,2.722c-0.848,1.085-1.892,1.794-3.133,2.1h70.712v-5.263
			h-63.728v-1.302c-1.454-0.001-3.283-0.002-4.6-0.004c-1.536,0-3.071,0.007-4.607-0.003c-1.053-0.006-1.921-0.838-1.95-1.844
			c-0.029-0.982,0.828-1.964,1.835-1.972c2.883-0.024,6.356-0.008,9.322-0.004v-0.065h63.728v-5.262h-63.728v-5.194h63.728v-5.261
			h-63.728v-0.102c-1.454-0.002-3.283-0.003-4.6-0.003c-1.536-0.001-3.071,0.007-4.607-0.002c-1.053-0.006-1.921-0.839-1.95-1.845
			c-0.029-0.982,0.828-1.964,1.835-1.973c2.883-0.023,6.356-0.008,9.322-0.003V5.261h63.728V0h-63.728h-0.653h-6.884
			c1.848,0.204,3.272,1.179,4.136,2.938c0.283,0.576,0.35,1.256,0.558,2.045c-1.172-0.017-2.171-0.052-3.169-0.039
			c-0.482,0.006-0.836-0.034-1.106-0.542c-0.261-0.487-0.753-0.729-1.371-0.719c-2.815,0.046-5.631,0.065-8.446,0.081
			c-0.7,0.004-1.208,0.26-1.505,0.922c-0.054,0.119-0.276,0.231-0.421,0.23c-1.159-0.004-2.319-0.036-3.544-0.061
			c-0.038-1.605,0.688-2.774,1.841-3.696c0.811-0.649,1.733-1.029,2.74-1.16h-11.727c2.198,0.254,4.085,1.838,4.5,3.863
			c0.067,0.331,0.077,0.674,0.123,1.102c-1.271-0.01-2.449-0.014-3.625-0.039c-0.11-0.003-0.26-0.122-0.317-0.229
			c-0.379-0.692-0.925-1.03-1.738-1.017c-2.831,0.046-5.662,0.058-8.494,0.091c-0.608,0.007-0.999,0.354-1.286,0.866
			c-0.072,0.129-0.253,0.28-0.383,0.28c-1.194-0.003-2.388-0.035-3.604-0.06c-0.062-1.428,0.545-2.539,1.543-3.445
			c0.897-0.814,1.926-1.255,3.061-1.412h-8.427v6.521c1.837,0.002,6.876-0.004,9.225-0.003c0.802,0.001,1.426,0.341,1.793,1.055
			c0.338,0.655,0.287,1.321-0.114,1.943c-0.327,0.505-0.812,0.815-1.402,0.817c-2.938,0.012-6.477-0.003-9.501-0.012V26.23
			c2.036,0,8.154,0,9.225,0c0.802,0.001,1.426,0.34,1.793,1.055c0.338,0.656,0.287,1.322-0.114,1.943
			c-0.327,0.506-0.812,0.815-1.402,0.817c-2.938,0.012-6.477-0.003-9.501-0.011v1.333v0.111v5.151h8.078
			C345.057,36.297,343.441,35.014,342.836,33.347z M372.231,28.659c-0.237,0.875-0.935,1.401-1.902,1.403
			c-2.392,0.007-4.781,0.003-7.172,0.003c-2.504,0-5.007,0.002-7.51-0.002c-0.834-0.001-1.478-0.429-1.772-1.15
			c-0.289-0.712-0.121-1.548,0.482-2.141c0.324-0.372,0.83-0.461,1.376-0.463c4.83-0.024,9.66-0.056,14.49-0.076
			C371.644,26.226,372.581,27.372,372.231,28.659z M380.944,24.657c-0.482,0.006-0.836-0.034-1.106-0.542
			c-0.261-0.486-0.753-0.728-1.371-0.718c-2.815,0.046-5.631,0.064-8.446,0.08c-0.7,0.004-1.208,0.26-1.505,0.922
			c-0.054,0.119-0.276,0.231-0.421,0.229c-1.159-0.004-2.319-0.035-3.544-0.06c-0.038-1.605,0.688-2.774,1.841-3.696
			c1.015-0.81,2.194-1.222,3.506-1.221c2.969,0.002,5.939-0.038,8.908,0.014c2.15,0.039,3.792,1.034,4.75,2.986
			c0.283,0.575,0.35,1.255,0.558,2.045C382.941,24.678,381.942,24.644,380.944,24.657z M378.557,13.184
			c0.666,0.001,1.132-0.281,1.426-0.886c0.061-0.126,0.259-0.264,0.393-0.263c1.177,0.003,2.352,0.037,3.566,0.062
			c0.103,1.043-0.226,1.941-0.836,2.722c-1.173,1.501-2.713,2.293-4.643,2.274c-2.936-0.029-5.874-0.049-8.81-0.083
			c-2.078-0.023-4.362-1.526-4.947-3.692c-0.107-0.402-0.134-0.826-0.209-1.303c1.313,0.028,2.538,0.048,3.761,0.09
			c0.096,0.003,0.214,0.135,0.272,0.236c0.328,0.574,0.821,0.841,1.473,0.842C372.854,13.183,375.705,13.181,378.557,13.184z
			 M354.356,7.058c0.324-0.371,0.83-0.459,1.376-0.462c4.83-0.024,9.66-0.056,14.49-0.076c1.422-0.005,2.359,1.141,2.009,2.427
			c-0.237,0.875-0.935,1.401-1.902,1.403c-2.392,0.006-4.781,0.002-7.172,0.002c-2.504,0-5.007,0.003-7.51-0.001
			c-0.834-0.001-1.478-0.429-1.772-1.151C353.585,8.487,353.753,7.651,354.356,7.058z M346.244,12.103
			c0.11,0.004,0.259,0.134,0.317,0.243c0.296,0.551,0.761,0.83,1.364,0.832c2.916,0.01,5.834,0.009,8.75,0.001
			c0.753-0.003,1.174-0.456,1.407-1.115c1.339-0.019,2.629-0.038,3.94-0.056c0.159,0.988-0.189,1.806-0.69,2.538
			c-1.09,1.591-2.606,2.461-4.565,2.466c-3.019,0.008-6.039,0.014-9.059-0.002c-2.103-0.011-4.169-1.439-4.872-3.375
			c-0.181-0.498-0.225-1.045-0.343-1.622C343.825,12.042,345.035,12.061,346.244,12.103z M347.853,23.483
			c-0.608,0.008-0.999,0.354-1.286,0.867c-0.072,0.129-0.253,0.279-0.383,0.279c-1.194-0.001-2.388-0.034-3.604-0.059
			c-0.062-1.429,0.545-2.54,1.543-3.446c1.224-1.108,2.687-1.53,4.335-1.477c1.616,0.052,3.235-0.004,4.853-0.006
			c1.211-0.002,2.422-0.012,3.632,0.019c2.393,0.065,4.518,1.748,4.962,3.916c0.067,0.33,0.077,0.673,0.123,1.101
			c-1.271-0.009-2.449-0.014-3.625-0.038c-0.11-0.003-0.26-0.123-0.317-0.228c-0.379-0.694-0.925-1.031-1.738-1.018
			C353.516,23.439,350.685,23.452,347.853,23.483z"/>
	</g>
</g>
</svg>
