<?xml version="1.0" encoding="utf-8"?>
<!-- Generator: Adobe Illustrator 17.0.2, SVG Export Plug-In . SVG Version: 6.00 Build 0)  -->
<!DOCTYPE svg PUBLIC "-//W3C//DTD SVG 1.1//EN" "http://www.w3.org/Graphics/SVG/1.1/DTD/svg11.dtd">
<svg version="1.1" id="Layer_1" xmlns="http://www.w3.org/2000/svg" xmlns:xlink="http://www.w3.org/1999/xlink" x="0px" y="0px"
	 width="250.428px" height="291.515px" viewBox="0 0 250.428 291.515" enable-background="new 0 0 250.428 291.515"
	 xml:space="preserve">
<path fill="#FFFFFF" d="M242.175,115.197c-0.042-0.114-4.408-0.328-5.499-0.379c1.349,0.401,2.698,0.842,4.048,1.321
	C241.209,115.825,241.691,115.51,242.175,115.197z"/>
<path fill="#FFFFFF" d="M243.356,78.392c0.975,0.384,1.949,0.801,2.924,1.229c0.708-3.037,1.202-6.074,1.401-9.107
	c-1.599-0.737-3.198-1.423-4.797-2.042C243.44,71.991,243.643,75.444,243.356,78.392z"/>
<g>
	<path fill="#008CBA" d="M239.316,106.448c-0.001,0.004-0.002,0.007-0.003,0.011C239.313,106.455,239.314,106.452,239.316,106.448z"
		/>
	<path fill="#008CBA" d="M139.181,106.69c0,0.041,0,0.081,0,0.122c-5,1.415-11.364,2.911-16.541,3.996
		c-1.806,0.382-3.25,2.483-3.197,4.292c0.052,1.853,1.661,3.108,3.551,2.734c2.755-0.545,5.344-1.181,8.099-1.843
		c2.366-0.564,6.087-1.399,8.087-2.093c0,0.804,0,1.608,0,2.413c34-8.847,66.79-21.573,100.087-10.352
		c0.836-2.747,1.539-5.839,2.009-8.859C207.278,84.596,173.181,97.656,139.181,106.69z"/>
	<path fill="#008CBA" d="M139.181,67.961c0,0.781,0,1.563,0,2.344c-5,1.415-11.364,2.912-16.541,3.996
		c-1.806,0.384-3.25,2.484-3.197,4.293c0.052,1.853,1.661,3.109,3.551,2.734c2.755-0.545,5.344-1.181,8.099-1.843
		c2.366-0.565,6.087-1.399,8.087-2.093c0,0.063,0,0.127,0,0.19c34-8.899,67.186-21.721,100.679-10.147
		c-0.899-3.646-2.147-7.213-3.501-10.711C204,47.108,172.181,59.363,139.181,67.961z"/>
	<path fill="#008CBA" d="M69.104,92.867c5.423,1.738,10.847,2.811,16.266,3.378c3.515,0.364,6.243-1.151,8.197-4.057
		c0.903-1.337,1.525-2.853,1.239-4.684c-2.352,0.018-4.668-0.043-7.072-0.2c-0.42,1.186-1.177,1.968-2.527,1.826
		c-5.237-0.556-10.476-1.595-15.711-3.235c-1.086-0.34-1.917-1.14-2.449-2.341c-0.107-0.238-0.372-0.572-0.57-0.649
		c-2.172-0.847-4.343-1.743-6.736-2.883c0.211,1.164,0.295,2.214,0.616,3.28C61.622,87.464,65.328,91.678,69.104,92.867z"/>
	<path fill="#008CBA" d="M83.359,83.671c4.493,0.593,8.988,0.818,13.482,0.76c4.293-0.055,8.584-0.365,12.877-0.897
		c1.735-0.216,2.989-1.374,3.417-3.055c0.625-2.478-1.055-4.334-3.607-4.015c-8.672,1.077-17.346,1.344-26.017,0.273
		c-0.98-0.121-1.89-0.092-2.471,0.502c-1.081,0.926-1.384,2.415-0.864,3.825C80.704,82.49,81.861,83.473,83.359,83.671z"/>
	<path fill="#008CBA" d="M109.528,112.968c-8.672,1.077-17.346,1.344-26.017,0.273c-0.98-0.121-1.89-0.092-2.471,0.502
		c-1.081,0.925-1.384,2.416-0.864,3.825c0.528,1.426,1.684,2.409,3.182,2.607c4.493,0.594,8.988,0.818,13.482,0.76
		c4.293-0.055,8.584-0.365,12.877-0.898c1.735-0.215,2.989-1.373,3.417-3.054C113.76,114.505,112.08,112.649,109.528,112.968z"/>
	<path fill="#008CBA" d="M124.94,98.188c-5.332,1.042-10.665,2.05-15.995,2.663c-2.355,0.271-4.473,1.215-6.294,2.834
		c-2.07,1.842-3.374,4.04-3.304,7.013c2.2-0.034,4.281-0.114,6.363-0.294c0.261-0.022,0.656-0.267,0.755-0.497
		c0.532-1.278,1.445-1.841,2.701-1.996c5.056-0.622,10.113-1.534,15.166-2.683c1.11-0.251,1.994,0.001,2.46,0.798
		c0.488,0.833,1.12,0.765,1.987,0.553c1.793-0.439,3.585-0.807,5.691-1.304c-0.373-1.367-0.495-2.597-1.002-3.536
		C131.748,98.549,128.8,97.432,124.94,98.188z"/>
	<path fill="#008CBA" d="M106.491,87.574c-0.104-0.177-0.319-0.402-0.489-0.391c-2.196,0.125-4.392,0.238-6.751,0.27
		c0.132,0.879,0.179,1.663,0.375,2.4c1.049,3.983,5.148,6.551,8.88,6.157c5.272-0.53,10.544-1.399,15.817-2.456
		c3.465-0.695,6.23-2.825,8.336-6.12c1.093-1.716,1.685-3.529,1.501-5.413c-2.179,0.499-4.288,0.943-6.403,1.415
		c-0.238,0.054-0.596,0.388-0.705,0.646c-0.529,1.239-1.365,1.947-2.561,2.198c-5.121,1.077-10.238,1.972-15.358,2.57
		C107.964,88.986,107.079,88.579,106.491,87.574z"/>
	<path fill="#008CBA" d="M87.736,110.168c0.106,0.205,0.371,0.447,0.571,0.467c2.113,0.203,4.225,0.297,6.508,0.332
		c-0.082-0.793-0.1-1.427-0.221-2.041c-0.798-4.02-4.611-7.168-8.91-7.741c-2.173-0.284-4.346-0.57-6.52-0.961
		c-2.904-0.523-5.809-1.103-8.714-2.06c-2.958-0.974-5.588-1.156-7.782-0.003c-1.792,0.941-2.883,2.489-2.769,5.188
		c2.182,1.032,4.324,1.951,6.469,2.715c0.235,0.083,0.555-0.084,0.686-0.278c0.517-0.772,1.216-1.175,2.311-0.847
		c5.083,1.523,10.167,2.538,15.251,3.039C86.078,108.12,87.058,108.828,87.736,110.168z"/>
	<path fill="#008CBA" d="M239.008,177.147c1.347-0.568,2.396-1.382,3.251-2.354c-45.093-17.042-90.186,11.249-135.279,15.777
		c-0.003-0.006-0.005-0.012-0.008-0.018c-0.003,0.001-0.007,0.002-0.011,0.004c2.8,6.928,2.972,14.017,0.635,21.244
		c-2.407,7.442-7.27,13.37-11.782,19.52c-0.266,0.363-1.003,0.674-1.423,0.579c-1.868-0.421-2.541,0.742-3.248,2.095
		c-2.396,4.589-19.518,30.244-24.845,57.521c28.388-29.882,56.357-26.63,84.67-18.197c61.098,18.197,82.073,2.42,38.236-28.134
		c-5.473-3.815-4.852-11.132-3.177-17.492c1.351-5.128,4.789-8.963,7.767-13.096c1.243-1.725,2.811-2.978,5.011-2.978
		c2.086-0.001,12.021,0.783,14.862,0.539c3.287-0.281,6.589-0.864,9.774-1.723c4.121-1.111,8.348-2.529,9.451-7.393
		c0.51-2.251,0.497-4.726,0.188-7.027c-0.304-2.264,0.21-3.924,1.911-5.313c0.672-0.549,1.345-1.099,2.034-1.627
		c2.897-2.217,3.673-6.156,1.211-8.749C236.381,178.373,237.285,177.873,239.008,177.147z"/>
	<path fill="#008CBA" d="M241.459,157.285c-0.074-0.496,0.538-1.21,0.997-1.649c0.033-0.031,0.068-0.061,0.101-0.092
		c-51.766-19.793-103.532,20.368-155.299,15.923c3.821,4.381,7.36,7.898,10.184,9.95c48.623-0.899,97.246-35.099,145.869-15.958
		C242.199,162.879,241.871,160.065,241.459,157.285z"/>
	<path fill="#008CBA" d="M238.054,124.868c-0.311-0.482-0.629-0.96-0.929-1.448c-1.505-2.456-0.786-4.413,1.593-5.981
		c1.146-0.755,2.303-1.495,3.455-2.242c-0.047-0.13-5.744-0.391-5.744-0.391c0.004-0.016,0.012-0.04,0.018-0.058
		c-36.471-10.732-72.941,6.258-109.412,14.4c2.228-1.063,4.101-2.825,5.624-5.209c1.093-1.716,1.685-3.528,1.501-5.413
		c-2.179,0.499-4.288,0.943-6.403,1.414c-0.238,0.055-0.596,0.389-0.705,0.646c-0.529,1.24-1.365,1.947-2.561,2.198
		c-5.121,1.076-10.238,1.971-15.358,2.569c-1.171,0.136-2.055-0.27-2.643-1.275c-0.104-0.177-0.319-0.401-0.489-0.392
		c-2.196,0.127-4.392,0.238-6.751,0.271c0.132,0.88,0.179,1.663,0.375,2.4c0.903,3.435,4.092,5.83,7.346,6.15
		c-6.604,0.664-13.208,0.817-19.811,0.243c2.662-0.239,4.798-1.666,6.406-4.057c0.903-1.338,1.525-2.853,1.239-4.685
		c-2.352,0.019-4.668-0.042-7.072-0.2c-0.42,1.187-1.177,1.968-2.527,1.825c-5.237-0.555-10.476-1.594-15.711-3.234
		c-1.086-0.341-1.917-1.139-2.449-2.341c-0.107-0.239-0.372-0.573-0.57-0.65c-2.172-0.847-4.343-1.743-6.736-2.882
		c0.211,1.165,0.295,2.213,0.616,3.28c1.088,3.576,3.988,7.199,7.181,8.886c-3.555-1.2-7.111-2.678-10.667-4.458
		c1.263,3.504,3.283,7.697,5.802,12.221C121.133,160.394,179.594,106.342,238.054,124.868z"/>
	<path fill="#008CBA" d="M249.261,148.713c1.247-2.264,1.631-4.838,0.474-7.719c-0.336-0.836-0.767-1.582-1.248-2.279
		c-59.406-28.145-118.813,27.909-178.22,10.164c2.61,3.952,5.388,7.896,8.191,11.639
		C135.393,171.339,192.327,121.036,249.261,148.713z"/>
	<path fill="#008CBA" d="M240.155,57.755c3.019,8.387,4.593,19.658,2.096,25.381c-0.055-1.782-0.379-3.543-0.561-5.287
		c-34.104-12.699-68.509,0.415-102.509,9.476c0,3.207,0,6.414,0,9.62c35-9.15,69.07-22.446,103.506-9.111
		c0.339-0.876,0.877-1.729,1.429-2.563c0.929-1.402,1.506-3.143,1.915-4.805c1.626-6.616,2.293-13.231,1.118-19.816
		C244.824,59.597,240.168,57.792,240.155,57.755z"/>
	<path fill="#008CBA" d="M53.181,112.455c0-0.824,0-1.647,0-2.471c5,3.119,11.71,5.802,16.986,7.33
		c1.059,0.315,1.892-0.02,2.48-0.799c0.721-0.961,0.794-2.173,0.187-3.545c-0.662-1.497-1.79-2.429-3.228-2.872
		c-1.921-0.318-12.913-4.761-16.568-7.158c-2.635-5.02-3.44-9.823-3.551-14.509c-1.127-1.788-2.281-3.667-2.784-4.535
		c-0.623-1.075-1.449-1.301-2.381-0.202c-2.773,3.271-6.264,5.492-10.247,7.025c-4.24,1.631-3.932,1.621-0.948,4.78
		c0.061,0.064,0.008,0.236,0.008,0.449c-1.559-0.36-2.3,0.41-3.271,1.653c-1.697,2.171-3.829,4.06-6.009,5.774
		c-1.457,1.146-1.739,1.548-0.215,2.78c2.416,1.952,5.153,3.188,8.32,3.24c1.898,0.031,7.264,1.165,13.361-0.005
		c-3.385,1.559-43.586,1.929-45.281,42.509c-0.301,7.213,1.118,20.329,3.817,26.823c25.746,64.8,8.725,91.456,8.968,91.414
		c24.776-4.228,50.106-20.86,55.879-45.041c7.326-30.686-41.522-93.978-15.522-104.381c0-2.685,0-5.369,0-8.053
		C53.181,112.591,53.181,112.523,53.181,112.455z"/>
	<path fill="#008CBA" d="M242.902,49.112c-5.215-8.999-14.724-19.134-19.065-18.89c0,0-33.591-42.323-107.168-26.8
		c-29.52,6.228-50.464,29.744-59.95,52.905c3.815,1.919,7.63,3.486,11.445,4.739c-2.034-0.377-3.881-0.258-5.495,0.59
		c-1.792,0.941-2.883,2.488-2.769,5.188c2.182,1.032,4.324,1.952,6.469,2.716c0.235,0.083,0.555-0.084,0.686-0.278
		c0.517-0.772,1.216-1.175,2.311-0.847c5.083,1.522,10.167,2.536,15.251,3.039c1.461,0.143,2.441,0.85,3.12,2.189
		c0.106,0.205,0.371,0.448,0.571,0.467c2.113,0.203,4.225,0.297,6.508,0.332c-0.082-0.793-0.1-1.427-0.221-2.041
		c-0.747-3.757-4.132-6.717-8.079-7.564c7.018,0.661,14.037,0.492,21.055-0.246c-1.807,0.432-3.462,1.272-4.919,2.569
		c-2.07,1.842-3.374,4.041-3.304,7.013c2.2-0.034,4.281-0.114,6.363-0.294c0.261-0.022,0.656-0.266,0.755-0.497
		c0.532-1.277,1.445-1.842,2.701-1.996c5.056-0.623,10.113-1.535,15.166-2.685c1.11-0.252,1.994,0.001,2.46,0.799
		c0.488,0.833,1.12,0.765,1.987,0.553c1.793-0.439,3.585-0.806,5.691-1.304c-0.373-1.367-0.495-2.596-1.002-3.536
		c-1.549-2.875-4.108-4.052-7.425-3.702C164.996,53.01,203.949,34.019,242.902,49.112z"/>
	<path fill="#008CBA" d="M70.093,80.81c1.059,0.314,1.929-0.02,2.517-0.799c0.721-0.962,0.813-2.174,0.205-3.545
		c-0.662-1.497-1.781-2.429-3.219-2.873c-4.13-1.075-12.884-4.918-16.34-7.019c-0.606,2.284-1.098,4.539-1.459,6.744
		C57.301,76.227,65.314,79.425,70.093,80.81z"/>
	<path fill="#FFFFFF" d="M248.489,138.717c-0.011-0.016-0.025-0.031-0.036-0.047c0.011,0.016,0.023,0.03,0.033,0.046
		C248.487,138.716,248.488,138.716,248.489,138.717z"/>
	<path fill="#FFFFFF" d="M249.263,148.714c-0.001,0-0.001,0-0.002-0.001c-0.003,0.005-0.005,0.011-0.008,0.017
		C249.256,148.724,249.26,148.719,249.263,148.714z"/>
	<path fill="#FFFFFF" d="M242.26,174.794c0.007-0.008,0.013-0.018,0.02-0.026C242.273,174.776,242.266,174.785,242.26,174.794
		C242.259,174.794,242.259,174.794,242.26,174.794z"/>
	<path fill="#FFFFFF" d="M244.902,169.815c-0.025,0.077-0.055,0.15-0.081,0.227c0.026-0.077,0.057-0.15,0.083-0.227
		c0.175-0.534,0.182-1.134-0.12-1.543c-0.609-0.825-1.085-2.35-1.47-2.35c-0.001,0-0.001,0-0.002,0c0.385,0,0.861,1.526,1.47,2.35
		C245.083,168.681,245.076,169.281,244.902,169.815z"/>
	<path fill="#FFFFFF" d="M243.148,173.616c-0.028,0.043-0.056,0.086-0.084,0.128C243.092,173.702,243.119,173.659,243.148,173.616z"
		/>
	<path fill="#FFFFFF" d="M236.612,56.612c0.015,0.037,0.029,0.075,0.043,0.112c0.001,0,0.001,0,0.002,0.001
		C236.643,56.687,236.627,56.65,236.612,56.612z"/>
	<path fill="#FFFFFF" d="M242.904,49.113c-0.001,0-0.002,0-0.002-0.001c0.037,0.065,0.072,0.128,0.109,0.193
		C242.974,49.24,242.941,49.177,242.904,49.113z"/>
	<path fill="#FFFFFF" d="M240.058,67.435c0.014,0.057,0.027,0.114,0.041,0.171c-0.014-0.057-0.025-0.114-0.039-0.171
		C240.059,67.436,240.058,67.436,240.058,67.435z"/>
	<path fill="#FFFFFF" d="M241.866,77.659c0.007,0.063,0.015,0.126,0.021,0.19c0.001,0,0.001,0,0.002,0.001
		C241.883,77.786,241.873,77.723,241.866,77.659z"/>
	<path fill="#FFFFFF" d="M241.574,97.099c0.003-0.017,0.004-0.033,0.006-0.049c-0.003,0.016-0.005,0.033-0.008,0.049
		C241.573,97.098,241.574,97.098,241.574,97.099z"/>
	<path fill="#FFFFFF" d="M239.467,105.958c-0.001,0-0.001,0-0.002-0.001c-0.05,0.164-0.1,0.329-0.15,0.491
		C239.366,106.285,239.417,106.123,239.467,105.958z"/>
	<path fill="#FFFFFF" d="M247.177,60.652c-0.007-0.041-0.017-0.082-0.024-0.122c0.007,0.041,0.015,0.081,0.022,0.122
		C247.176,60.651,247.176,60.652,247.177,60.652z"/>
	<path fill="#FFFFFF" d="M246.837,58.984c0.025,0.108,0.051,0.216,0.074,0.325C246.888,59.201,246.861,59.093,246.837,58.984z"/>
</g>
</svg>
